<?xml version="1.0" encoding="UTF-8"?>
<svg xmlns="http://www.w3.org/2000/svg" xmlns:xlink="http://www.w3.org/1999/xlink" width="2022" height="3001" viewBox="0 0 2022 3001">
<path fill-rule="nonzero" fill="rgb(19.993591%, 19.993591%, 19.993591%)" fill-opacity="1" d="M 556.761719 1768.511719 C 553.730469 1784.371094 564.132812 1799.699219 579.992188 1802.738281 C 595.855469 1805.769531 611.183594 1795.359375 614.214844 1779.5 L 614.269531 1779.238281 C 691.59375 1821.550781 936.617188 1972.46875 1018.828125 2023.261719 C 1012.339844 2033.828125 1013.078125 2047.808594 1021.628906 2057.683594 C 1032.179688 2069.878906 1050.640625 2071.210938 1062.839844 2060.660156 C 2418.511719 884.121094 1945.921875 52.25 1924.28125 15.800781 C 1919.460938 6.53125 1909.828125 0.140625 1898.648438 0 L 1898.628906 0.109375 C 1895.78125 0.078125 905.082031 -31.261719 556.761719 1768.511719 Z M 1753.171875 660.199219 C 1793.691406 804.558594 1708.429688 952.28125 1563.148438 989.351562 C 1496.058594 1006.46875 1421.808594 998.148438 1356.320312 960.351562 C 1290.910156 922.578125 1246.609375 862.429688 1227.890625 795.71875 C 1187.359375 651.359375 1272.628906 503.640625 1417.910156 466.578125 C 1562.738281 429.609375 1712.78125 516.289062 1753.171875 660.199219 "/>
<path fill-rule="nonzero" fill="rgb(19.993591%, 19.993591%, 19.993591%)" fill-opacity="1" d="M 687.191406 1395.398438 C 701.371094 1393.648438 712.488281 1381.691406 712.769531 1367 C 713.082031 1350.890625 700.273438 1337.550781 684.160156 1337.238281 C 609.175781 1335.671875 489.390625 1343.621094 363.425781 1393.910156 C 236.808594 1444.46875 104.214844 1537.480469 4.796875 1705.710938 L 4.746094 1705.679688 C -3.480469 1719.609375 1.132812 1737.578125 15.066406 1745.808594 C 22.277344 1750.070312 30.566406 1750.890625 38.027344 1748.761719 C 67.875 1742.640625 415.207031 1673.75 584.449219 1747.359375 C 599.238281 1753.808594 616.464844 1747.050781 622.90625 1732.261719 C 629.351562 1717.46875 622.589844 1700.238281 607.800781 1693.800781 L 607.300781 1693.589844 L 687.191406 1395.398438 "/>
<path fill-rule="nonzero" fill="rgb(19.993591%, 19.993591%, 19.993591%)" fill-opacity="1" d="M 1374.128906 1733 C 1365.730469 1719.21875 1347.738281 1714.859375 1333.960938 1723.269531 C 1320.191406 1731.671875 1315.828125 1749.660156 1324.230469 1763.429688 L 1324.738281 1764.261719 L 1106.878906 1982.121094 C 1105.25 1980.898438 1103.609375 1979.691406 1101.96875 1978.519531 C 1088.820312 1969.171875 1070.570312 1972.25 1061.21875 1985.390625 C 1051.871094 1998.53125 1054.949219 2016.78125 1068.101562 2026.132812 C 1218.851562 2133.878906 1334.929688 2477.421875 1343.308594 2502.703125 C 1345.269531 2510.074219 1350.078125 2516.675781 1357.238281 2520.710938 C 1371.328125 2528.65625 1389.199219 2523.667969 1397.148438 2509.578125 L 1371.628906 2495.1875 L 1397.03125 2509.492188 C 1474.148438 2372.714844 1498.539062 2241.765625 1495.050781 2125.664062 C 1489.769531 1949.980469 1420.710938 1808.898438 1374.128906 1733 "/>
<path fill-rule="nonzero" fill="rgb(19.993591%, 19.993591%, 19.993591%)" fill-opacity="1" d="M 582.59375 1738.660156 L 1086.910156 2029.8125 L 1072.371094 2055.109375 L 1087.019531 2029.738281 C 1101.03125 2037.828125 1105.828125 2055.753906 1097.738281 2069.757812 C 1097.421875 2070.320312 1097.078125 2070.859375 1096.730469 2071.386719 L 1063.339844 2129.214844 L 1063.398438 2129.246094 C 1055.308594 2143.257812 1037.378906 2148.058594 1023.371094 2139.96875 C 1022.808594 2139.644531 1022.269531 2139.304688 1021.75 2138.949219 L 516.703125 1847.371094 L 516.671875 1847.421875 C 502.664062 1839.328125 497.859375 1821.410156 505.949219 1807.398438 C 506.273438 1806.839844 506.613281 1806.300781 506.96875 1805.769531 L 540.351562 1747.949219 L 540.296875 1747.921875 C 548.386719 1733.910156 566.3125 1729.109375 580.316406 1737.199219 C 581.105469 1737.648438 581.867188 1738.140625 582.59375 1738.660156 "/>
<path fill-rule="nonzero" fill="rgb(50.193787%, 50.193787%, 50.193787%)" fill-opacity="1" d="M 588.222656 2002.691406 C 569.355469 2017.890625 476.902344 2096.375 461.414062 2186.640625 C 485.027344 2174.226562 515.664062 2166.011719 550.769531 2175.070312 L 550.878906 2174.972656 C 566.539062 2179.015625 575.964844 2195 571.925781 2210.660156 C 570.3125 2216.917969 566.789062 2222.179688 562.152344 2225.976562 C 550.769531 2236.644531 453.289062 2332.132812 478.828125 2452.855469 C 543.550781 2379.007812 633.246094 2353.144531 712.867188 2330.203125 C 807.554688 2302.929688 884.769531 2280.648438 853.917969 2162.355469 L 853.828125 2162.378906 C 851.652344 2154.046875 853.292969 2145.621094 857.660156 2138.9375 L 588.222656 2002.691406 "/>
<path fill-rule="nonzero" fill="rgb(50.193787%, 50.193787%, 50.193787%)" fill-opacity="1" d="M 184.308594 2989.832031 C 75.101562 2886.167969 132.703125 2765.132812 185.234375 2654.820312 C 202.632812 2618.285156 219.355469 2583.171875 227.4375 2552.621094 C 196.496094 2579.121094 147.011719 2599.613281 68.914062 2588.359375 L 73.03125 2559.40625 L 68.851562 2588.402344 C 52.839844 2586.097656 41.730469 2571.238281 44.035156 2555.226562 C 45.105469 2547.765625 48.90625 2541.363281 54.285156 2536.890625 C 102.152344 2491.707031 120.644531 2406.769531 140.023438 2317.730469 C 182.253906 2123.65625 228.308594 1912.269531 564.582031 1946.5 L 551.46875 1957.058594 C 485.90625 2009.882812 418.257812 2091.691406 403.671875 2176.730469 L 383.59375 2293.757812 L 467.1875 2249.804688 C 462.882812 2256.476562 458.917969 2263.070312 455.375 2269.402344 C 421.871094 2329.335938 407.132812 2397.019531 421.503906 2464.980469 L 445.734375 2579.507812 L 522.890625 2491.472656 C 576.289062 2430.535156 654.070312 2408.113281 729.089844 2386.5 C 786.34375 2370.007812 851.542969 2352.257812 889.566406 2302.761719 C 922.996094 2259.230469 924.507812 2206.558594 912.554688 2155.421875 L 915.9375 2143.789062 C 938.210938 2162.9375 953.925781 2187.519531 963.800781 2216.082031 C 982.515625 2270.164062 979.65625 2338.449219 960.964844 2410.09375 C 942.894531 2479.375 909.863281 2552.671875 867.378906 2619.34375 C 800.027344 2725.050781 707.996094 2815.050781 612.519531 2848.097656 L 612.5625 2848.222656 C 597.273438 2853.507812 580.582031 2845.398438 575.292969 2830.109375 C 571.410156 2818.886719 574.753906 2806.898438 582.859375 2799.230469 C 588.429688 2793.644531 633.398438 2747.597656 655.1875 2693.316406 C 596.332031 2763.25 523.769531 2783.390625 451.871094 2803.3125 C 366.582031 2826.953125 282.371094 2850.320312 233.851562 2980.867188 L 233.957031 2980.902344 C 228.324219 2996.066406 211.457031 3003.796875 196.296875 2998.164062 C 191.492188 2996.378906 187.429688 2993.464844 184.308594 2989.832031 "/>
</svg>
