<?xml version="1.0" encoding="UTF-8"?>
<svg xmlns="http://www.w3.org/2000/svg" xmlns:xlink="http://www.w3.org/1999/xlink" width="3750" height="3750" viewBox="0 0 3750 3750">
<rect x="-375" y="-375" width="4500" height="4500" fill="rgb(100%, 100%, 100%)" fill-opacity="1"/>
<path fill-rule="evenodd" fill="rgb(0%, 0%, 0%)" fill-opacity="1" d="M 2073.289062 1621.179688 C 2129.808594 1570.089844 2151.171875 1527.308594 2119.140625 1451.71875 C 2092.019531 1510.96875 2058.378906 1548.941406 2073.289062 1621.179688 M 1667.828125 1419.058594 C 1625.378906 1528.28125 1661.441406 1603.640625 1765.789062 1634.421875 C 1753.371094 1555.421875 1737.871094 1480.75 1667.828125 1419.058594 M 1941.878906 3172.765625 C 1973.910156 3172.703125 2006.519531 3176.382812 2037.878906 3171.914062 C 2128.261719 3158.878906 2207.21875 3122.515625 2267.308594 3054.164062 C 2278.078125 3041.804688 2288.621094 3024.890625 2275.519531 3007.582031 C 2263 2990.9375 2245.589844 2992.734375 2227.910156 2999.671875 C 2187.980469 3015.46875 2146.140625 3025.320312 2103.390625 3025.847656 C 1982.730469 3027.480469 1861.351562 3041.308594 1742.019531 3013.5625 C 1696.160156 3002.929688 1676.730469 3018.101562 1671.460938 3062.472656 C 1663.359375 3129.765625 1668.148438 3136.070312 1747.328125 3138.703125 C 1761.21875 3139.117188 1778.46875 3138.277344 1788.25 3145.527344 C 1835.109375 3179.878906 1889.660156 3170.8125 1941.878906 3172.765625 M 1924.390625 1981.648438 C 1924.269531 1923.558594 1924.378906 1865.390625 1923.898438 1807.289062 C 1923.71875 1790.109375 1922.429688 1770.351562 1898.191406 1771.058594 C 1876.890625 1771.769531 1870.171875 1789.480469 1868 1807.109375 C 1866.339844 1820.628906 1865.339844 1834.441406 1866.621094 1847.949219 C 1876.890625 1957 1868.890625 2065.929688 1860.730469 2174.570312 C 1850.5 2310.910156 1834.609375 2446.890625 1822.539062 2583.160156 C 1820.449219 2605.558594 1805.601562 2634.820312 1831.78125 2649.75 C 1866.710938 2669.730469 1908.269531 2663.929688 1945.558594 2655.328125 C 1977.929688 2647.851562 1968.101562 2616.949219 1967.691406 2594.550781 C 1967.03125 2557.019531 1966.289062 2519.269531 1960.929688 2482.191406 C 1937.101562 2316.101562 1929.859375 2148.730469 1924.390625 1981.648438 M 2313.71875 2791.578125 C 2139.238281 2730.820312 1972.378906 2737.320312 1805.890625 2742.199219 C 1763.589844 2743.390625 1722.558594 2755.292969 1684.011719 2725.328125 C 1654.511719 2702.550781 1629.289062 2721.46875 1612.660156 2745.449219 C 1577.289062 2796.785156 1592.308594 2850.589844 1646.871094 2885.882812 C 1704.160156 2922.933594 1766.339844 2946.164062 1835.378906 2946.761719 C 1924.101562 2947.46875 2013.191406 2949.347656 2101.609375 2942.636719 C 2200.601562 2935.09375 2267.480469 2879.363281 2313.71875 2791.578125 M 2011.859375 2017.25 C 2023.191406 2212.960938 2069.039062 2404.78125 2076.109375 2600.28125 C 2078.289062 2660.140625 2118.910156 2662.921875 2162.539062 2665.328125 C 2210.210938 2667.949219 2262.289062 2637.070312 2267.578125 2600.121094 C 2272 2569.710938 2268.199219 2538.351562 2269.75 2507.5 C 2275.550781 2394.53125 2277.230469 2280.25 2322.769531 2173.800781 C 2367.519531 2069.128906 2431 1973.160156 2483.238281 1871.988281 C 2571.628906 1700.761719 2669.859375 1534.289062 2713.25 1342.871094 C 2775.210938 1069.160156 2678.621094 841.078125 2486.121094 658.441406 C 2270.808594 454.019531 1997.449219 380.171875 1697.640625 451.488281 C 1294.171875 547.621094 1032.808594 859.109375 1040.199219 1256.21875 C 1043.648438 1440.410156 1093.210938 1614.238281 1215.570312 1764.339844 C 1270.570312 1831.871094 1333.121094 1892.710938 1388.699219 1959.359375 C 1457.46875 2041.851562 1544.570312 2114.460938 1582.300781 2215.601562 C 1624.171875 2327.808594 1663.46875 2443.480469 1645.871094 2567.050781 C 1644.929688 2573.820312 1644.71875 2580.789062 1645.03125 2587.621094 C 1645.800781 2607.011719 1655.601562 2620.941406 1676.238281 2621.710938 C 1691.808594 2622.339844 1702.289062 2611.53125 1705.421875 2596.679688 C 1714.078125 2556.421875 1725.089844 2516.289062 1729.640625 2475.519531 C 1751.210938 2280.921875 1767.640625 2086.179688 1770.480469 1890.078125 C 1771.78125 1802.019531 1769.941406 1727.25 1670.5 1689.25 C 1648.441406 1680.851562 1630.480469 1660.691406 1612.820312 1643.828125 C 1517.820312 1552.210938 1506.070312 1476.878906 1568.351562 1366.589844 C 1600.191406 1309.96875 1641.511719 1296.449219 1700.179688 1324.828125 C 1729.359375 1338.871094 1751.730469 1360.128906 1768.019531 1388.371094 C 1811.289062 1463.570312 1855.5 1538.101562 1862.941406 1626.660156 C 1864.75 1649.28125 1876.609375 1664.898438 1903.050781 1666.019531 C 1929.351562 1667.21875 1941.289062 1653.101562 1946.828125 1630.539062 C 1953.390625 1603.859375 1959.941406 1577.121094 1967.679688 1550.808594 C 1983.21875 1497.96875 1996.921875 1444.46875 2016.5 1393.089844 C 2030.890625 1355.539062 2059.929688 1330.730469 2106.570312 1333.871094 C 2148.808594 1336.71875 2182.328125 1351.050781 2199.230469 1391.558594 C 2212.371094 1423.480469 2225.28125 1454.671875 2227.480469 1490.070312 C 2233.480469 1586.78125 2187.929688 1654.070312 2104.660156 1702.128906 C 2071.429688 1721.210938 2032.460938 1735.839844 2029.089844 1781.308594 C 2023.230469 1859.980469 2017.578125 1938.570312 2011.859375 2017.25 M 2827.359375 1254.070312 C 2817.261719 1347.359375 2783.019531 1484.261719 2724.230469 1619.300781 C 2633.28125 1828.359375 2496.160156 2015.039062 2417.121094 2229 C 2365.539062 2368.640625 2378.390625 2513.378906 2378.230469 2657.261719 C 2443.480469 2746.660156 2421.238281 2828.675781 2358.460938 2909.808594 C 2340.589844 2932.90625 2366.851562 2954.667969 2376.878906 2975.433594 C 2396.871094 3017.183594 2393.410156 3054.136719 2360.878906 3089.160156 C 2297.179688 3157.8125 2237.101562 3229.394531 2177.898438 3301.707031 C 2137.089844 3351.511719 2069.03125 3399.3125 1989.5 3405.933594 C 1926.570312 3411.128906 1868.878906 3397.359375 1818.210938 3360.519531 C 1801.289062 3348.210938 1778.941406 3335.84375 1772.21875 3318.746094 C 1745.871094 3251.300781 1697.910156 3215.847656 1624.808594 3203.433594 C 1583.878906 3196.539062 1569.351562 3164.03125 1573.308594 3124.875 C 1576.191406 3097.546875 1578.421875 3070.074219 1581.960938 3042.890625 C 1589.128906 2990.070312 1588.738281 2943.800781 1533.140625 2908.140625 C 1486.230469 2878.121094 1487.808594 2825.457031 1498.441406 2776.449219 C 1510.808594 2719.429688 1532.660156 2663.351562 1537.25 2605.980469 C 1551.871094 2422.191406 1510.328125 2254.371094 1387.308594 2105.519531 C 1305.289062 2006.160156 1206.191406 1922.050781 1128.210938 1819.601562 C 998.015625 1648.578125 921.984375 1454.679688 922.449219 1246.171875 C 922.765625 1108.898438 958.765625 967.660156 1035.859375 844.339844 C 1088.570312 759.851562 1123.929688 662.679688 1207.75 599.648438 C 1484.230469 391.839844 1781.238281 275.789062 2140.378906 384.660156 C 2300.660156 433.25 2447.96875 495.390625 2560.511719 616.058594 C 2715.890625 782.691406 2832.960938 967.839844 2827.359375 1254.070312 "/>
</svg>
